<mxfile host="65bd71144e">
    <diagram id="SHuaPm-6ULnT1UB8VPy8" name="第 1 页">
        <mxGraphModel dx="1063" dy="599" grid="1" gridSize="10" guides="1" tooltips="1" connect="1" arrows="1" fold="1" page="1" pageScale="1" pageWidth="900" pageHeight="1300" math="0" shadow="0">
            <root>
                <mxCell id="0"/>
                <mxCell id="1" parent="0"/>
                <mxCell id="5" style="edgeStyle=none;html=1;exitX=0.5;exitY=1;exitDx=0;exitDy=0;" edge="1" parent="1" source="2">
                    <mxGeometry relative="1" as="geometry">
                        <mxPoint x="440" y="420" as="targetPoint"/>
                    </mxGeometry>
                </mxCell>
                <mxCell id="2" value="" style="rounded=0;whiteSpace=wrap;html=1;" vertex="1" parent="1">
                    <mxGeometry x="50" y="90" width="780" height="330" as="geometry"/>
                </mxCell>
                <mxCell id="3" value="" style="endArrow=classic;startArrow=classic;html=1;exitX=1;exitY=0.5;exitDx=0;exitDy=0;entryX=0;entryY=0.5;entryDx=0;entryDy=0;" edge="1" parent="1" source="2" target="2">
                    <mxGeometry width="50" height="50" relative="1" as="geometry">
                        <mxPoint x="420" y="330" as="sourcePoint"/>
                        <mxPoint x="470" y="280" as="targetPoint"/>
                    </mxGeometry>
                </mxCell>
                <mxCell id="4" value="" style="endArrow=classic;startArrow=classic;html=1;entryX=0.5;entryY=0;entryDx=0;entryDy=0;exitX=0.5;exitY=1;exitDx=0;exitDy=0;" edge="1" parent="1" source="2" target="2">
                    <mxGeometry width="50" height="50" relative="1" as="geometry">
                        <mxPoint x="440" y="410" as="sourcePoint"/>
                        <mxPoint x="470" y="280" as="targetPoint"/>
                    </mxGeometry>
                </mxCell>
                <mxCell id="6" value="&lt;font style=&quot;font-size: 19px&quot;&gt;halfWidth&lt;/font&gt;" style="text;html=1;align=center;verticalAlign=middle;resizable=0;points=[];autosize=1;strokeColor=none;fillColor=none;" vertex="1" parent="1">
                    <mxGeometry x="580" y="440" width="90" height="20" as="geometry"/>
                </mxCell>
                <mxCell id="7" value="halfHeight" style="text;html=1;align=center;verticalAlign=middle;resizable=0;points=[];autosize=1;strokeColor=none;fillColor=none;fontSize=19;" vertex="1" parent="1">
                    <mxGeometry x="840" y="335" width="100" height="30" as="geometry"/>
                </mxCell>
                <mxCell id="8" value="(x,y)" style="text;html=1;align=center;verticalAlign=middle;resizable=0;points=[];autosize=1;strokeColor=none;fillColor=none;fontSize=19;" vertex="1" parent="1">
                    <mxGeometry x="440" y="260" width="50" height="30" as="geometry"/>
                </mxCell>
                <mxCell id="9" value="TopLeft" style="text;html=1;align=center;verticalAlign=middle;resizable=0;points=[];autosize=1;strokeColor=none;fillColor=none;fontSize=19;" vertex="1" parent="1">
                    <mxGeometry x="60" y="110" width="80" height="30" as="geometry"/>
                </mxCell>
                <mxCell id="10" value="TopRight" style="text;html=1;align=center;verticalAlign=middle;resizable=0;points=[];autosize=1;strokeColor=none;fillColor=none;fontSize=19;" vertex="1" parent="1">
                    <mxGeometry x="730" y="100" width="90" height="30" as="geometry"/>
                </mxCell>
                <mxCell id="11" value="BottomLeft" style="text;html=1;align=center;verticalAlign=middle;resizable=0;points=[];autosize=1;strokeColor=none;fillColor=none;fontSize=19;" vertex="1" parent="1">
                    <mxGeometry x="60" y="280" width="110" height="30" as="geometry"/>
                </mxCell>
                <mxCell id="12" value="BottomRight" style="text;html=1;align=center;verticalAlign=middle;resizable=0;points=[];autosize=1;strokeColor=none;fillColor=none;fontSize=19;" vertex="1" parent="1">
                    <mxGeometry x="700" y="280" width="120" height="30" as="geometry"/>
                </mxCell>
                <mxCell id="13" value="" style="endArrow=classic;startArrow=classic;html=1;fontSize=19;entryX=1;entryY=0.25;entryDx=0;entryDy=0;" edge="1" parent="1" target="2">
                    <mxGeometry width="50" height="50" relative="1" as="geometry">
                        <mxPoint x="440" y="173" as="sourcePoint"/>
                        <mxPoint x="470" y="280" as="targetPoint"/>
                    </mxGeometry>
                </mxCell>
                <mxCell id="14" value="" style="endArrow=classic;startArrow=classic;html=1;fontSize=19;entryX=0.75;entryY=0;entryDx=0;entryDy=0;" edge="1" parent="1" target="2">
                    <mxGeometry width="50" height="50" relative="1" as="geometry">
                        <mxPoint x="635" y="255" as="sourcePoint"/>
                        <mxPoint x="470" y="280" as="targetPoint"/>
                    </mxGeometry>
                </mxCell>
                <mxCell id="15" value="（x+halfWidth/2,y+halfHeight/2)" style="text;html=1;align=center;verticalAlign=middle;resizable=0;points=[];autosize=1;strokeColor=none;fillColor=none;fontSize=19;" vertex="1" parent="1">
                    <mxGeometry x="460" y="185" width="280" height="30" as="geometry"/>
                </mxCell>
            </root>
        </mxGraphModel>
    </diagram>
</mxfile>